<svg width="136" height="66" viewBox="0 0 136 66" fill="none" xmlns="http://www.w3.org/2000/svg">
<path d="M70 34V50C70 51.5913 69.3679 53.1174 68.2426 54.2426C67.1174 55.3679 65.5913 56 64 56H59.66C59.1882 57.335 58.2596 58.4602 57.0384 59.1767C55.8172 59.8933 54.382 60.155 52.9864 59.9156C51.5909 59.6763 50.3249 58.9513 49.4123 57.8687C48.4996 56.7862 47.999 55.4159 47.999 54C47.999 52.5841 48.4996 51.2138 49.4123 50.1313C50.3249 49.0487 51.5909 48.3237 52.9864 48.0844C54.382 47.845 55.8172 48.1067 57.0384 48.8233C58.2596 49.5398 59.1882 50.665 59.66 52H64C64.5304 52 65.0391 51.7893 65.4142 51.4142C65.7893 51.0391 66 50.5304 66 50V34C66 32.4087 66.6321 30.8826 67.7574 29.7574C68.8826 28.6321 70.4087 28 72 28H78V22L88 30L78 38V32H72C71.4696 32 70.9609 32.2107 70.5858 32.5858C70.2107 32.9609 70 33.4696 70 34ZM54 56C54.5304 56 55.0391 55.7893 55.4142 55.4142C55.7893 55.0391 56 54.5304 56 54C56 53.4696 55.7893 52.9609 55.4142 52.5858C55.0391 52.2107 54.5304 52 54 52C53.4696 52 52.9609 52.2107 52.5858 52.5858C52.2107 52.9609 52 53.4696 52 54C52 54.5304 52.2107 55.0391 52.5858 55.4142C52.9609 55.7893 53.4696 56 54 56Z" fill="#FF2B2A"/>
<path d="M32 66H0V62C0 59.3478 1.05357 56.8043 2.92893 54.9289C4.8043 53.0536 7.34784 52 10 52H22C24.6522 52 27.1957 53.0536 29.0711 54.9289C30.9464 56.8043 32 59.3478 32 62V66ZM16 48C14.4241 48 12.8637 47.6896 11.4078 47.0866C9.95189 46.4835 8.62902 45.5996 7.51472 44.4853C6.40042 43.371 5.5165 42.0481 4.91345 40.5922C4.31039 39.1363 4 37.5759 4 36C4 34.4241 4.31039 32.8637 4.91345 31.4078C5.5165 29.9519 6.40042 28.629 7.51472 27.5147C8.62902 26.4004 9.95189 25.5165 11.4078 24.9134C12.8637 24.3104 14.4241 24 16 24C19.1826 24 22.2348 25.2643 24.4853 27.5147C26.7357 29.7652 28 32.8174 28 36C28 39.1826 26.7357 42.2348 24.4853 44.4853C22.2348 46.7357 19.1826 48 16 48Z" fill="#FF2B2A"/>
<path d="M136 42H104V38C104 35.3478 105.054 32.8043 106.929 30.9289C108.804 29.0536 111.348 28 114 28H126C128.652 28 131.196 29.0536 133.071 30.9289C134.946 32.8043 136 35.3478 136 38V42ZM120 24C118.424 24 116.864 23.6896 115.408 23.0866C113.952 22.4835 112.629 21.5996 111.515 20.4853C110.4 19.371 109.517 18.0481 108.913 16.5922C108.31 15.1363 108 13.5759 108 12C108 10.4241 108.31 8.86371 108.913 7.4078C109.517 5.95189 110.4 4.62902 111.515 3.51472C112.629 2.40042 113.952 1.5165 115.408 0.913445C116.864 0.310389 118.424 -2.34822e-08 120 0C123.183 4.74244e-08 126.235 1.26428 128.485 3.51472C130.736 5.76516 132 8.8174 132 12C132 15.1826 130.736 18.2348 128.485 20.4853C126.235 22.7357 123.183 24 120 24Z" fill="#FF2B2A"/>
</svg>
