<svg width="71" height="66" viewBox="0 0 71 66" fill="none" xmlns="http://www.w3.org/2000/svg">
<path d="M34.2169 55.9999H28.1298C27.5388 53.4539 24.8723 51.3718 23.7778 49.9998C21.9037 47.6463 20.7292 44.8085 20.3895 41.8134C20.0499 38.8184 20.5589 35.7877 21.8581 33.0707C23.1572 30.3537 25.1935 28.0608 27.7325 26.4562C30.2715 24.8516 33.2098 24.0005 36.209 24.001C39.2082 24.0015 42.1463 24.8535 44.6847 26.4589C47.2232 28.0644 49.2588 30.3579 50.5571 33.0754C51.8553 35.7928 52.3634 38.8236 52.0228 41.8185C51.6822 44.8135 50.5068 47.6509 48.6319 50.0038C47.5375 51.3738 44.8749 53.4559 44.2839 55.9999H38.1968V45.9996H34.2169V55.9999ZM44.1665 60.0001V62.0001C44.1665 63.061 43.7472 64.0785 43.0009 64.8286C42.2545 65.5788 41.2422 66.0002 40.1867 66.0002H32.227C31.1715 66.0002 30.1592 65.5788 29.4129 64.8286C28.6665 64.0785 28.2472 63.061 28.2472 62.0001V60.0001H44.1665Z" fill="#FF2B2A"/>
<path d="M35.2204 0C36.0303 0 36.807 0.326616 37.3797 0.907996C37.9524 1.48938 38.2742 2.2779 38.2742 3.10009V12.4004C38.2742 13.2226 37.9524 14.0111 37.3797 14.5925C36.807 15.1739 36.0303 15.5005 35.2204 15.5005C34.4104 15.5005 33.6337 15.1739 33.061 14.5925C32.4883 14.0111 32.1666 13.2226 32.1666 12.4004V3.10009C32.1666 2.2779 32.4883 1.48938 33.061 0.907996C33.6337 0.326616 34.4104 0 35.2204 0ZM61.6663 15.5005C62.0713 16.2125 62.181 17.0587 61.9714 17.8528C61.7618 18.647 61.25 19.3241 60.5486 19.7352L52.6148 24.3853C52.2674 24.5921 51.8831 24.7271 51.4841 24.7825C51.0851 24.8378 50.6792 24.8126 50.2898 24.7081C49.9005 24.6036 49.5353 24.4219 49.2154 24.1736C48.8955 23.9252 48.6271 23.6151 48.4257 23.261C48.2244 22.907 48.094 22.516 48.0421 22.1105C47.9902 21.7051 48.0178 21.2932 48.1233 20.8987C48.2288 20.5041 48.4102 20.1347 48.6569 19.8115C48.9037 19.4884 49.2109 19.218 49.561 19.016L57.4948 14.3658C58.1962 13.9548 59.0297 13.8434 59.812 14.0561C60.5943 14.2689 61.2613 14.7885 61.6663 15.5005ZM21.9974 23.2507C21.5924 23.9627 20.9254 24.4823 20.1431 24.695C19.3608 24.9078 18.5273 24.7964 17.8259 24.3853L9.8921 19.7352C9.542 19.5331 9.23472 19.2628 8.98797 18.9396C8.74122 18.6165 8.55986 18.247 8.45434 17.8525C8.34882 17.4579 8.32122 17.0461 8.37313 16.6406C8.42504 16.2352 8.55544 15.8442 8.75681 15.4902C8.95818 15.1361 9.22655 14.826 9.54647 14.5776C9.8664 14.3293 10.2315 14.1476 10.6209 14.0431C11.0103 13.9386 11.4161 13.9133 11.8152 13.9687C12.2142 14.0241 12.5985 14.1591 12.9459 14.3658L20.8797 19.016C21.5811 19.4271 22.0929 20.1042 22.3025 20.8984C22.5121 21.6925 22.4023 22.5387 21.9974 23.2507Z" fill="#FF2B2A"/>
<path d="M70.2059 36.8429C70.4137 37.636 70.3018 38.4819 69.8948 39.1944C69.4879 39.907 68.8192 40.4279 68.0358 40.6426L59.1749 43.0704C58.7861 43.1797 58.3802 43.2101 57.9805 43.1598C57.5808 43.1095 57.1952 42.9795 56.8461 42.7773C56.4969 42.575 56.1909 42.3046 55.9459 41.9815C55.7008 41.6584 55.5214 41.289 55.4181 40.8946C55.3148 40.5002 55.2895 40.0886 55.3438 39.6835C55.398 39.2784 55.5307 38.8878 55.7343 38.5341C55.9378 38.1804 56.2081 37.8707 56.5297 37.6228C56.8512 37.3749 57.2176 37.1937 57.6078 37.0896L66.4687 34.6617C67.2521 34.4471 68.0859 34.5564 68.7867 34.9654C69.4876 35.3744 69.9981 36.0498 70.2059 36.8429Z" fill="#FF2B2A"/>
<path d="M0.794092 36.8429C0.5863 37.636 0.698193 38.4819 1.10516 39.1944C1.51213 39.907 2.18083 40.4279 2.96417 40.6426L11.8251 43.0704C12.2139 43.1797 12.6198 43.2101 13.0195 43.1598C13.4192 43.1095 13.8048 42.9795 14.1539 42.7773C14.5031 42.575 14.8091 42.3046 15.0541 41.9815C15.2992 41.6584 15.4786 41.289 15.5819 40.8946C15.6852 40.5002 15.7105 40.0886 15.6562 39.6835C15.602 39.2784 15.4693 38.8878 15.2657 38.5341C15.0622 38.1804 14.7919 37.8707 14.4703 37.6228C14.1488 37.3749 13.7824 37.1937 13.3922 37.0896L4.53127 34.6617C3.74792 34.4471 2.91411 34.5564 2.21326 34.9654C1.5124 35.3744 1.00192 36.0498 0.794092 36.8429Z" fill="#FF2B2A"/>
</svg>
