<svg width="66" height="66" viewBox="0 0 66 66" fill="none" xmlns="http://www.w3.org/2000/svg">
<path d="M33 29.7C37.3761 29.7 41.5729 31.4384 44.6673 34.5327C47.7616 37.6271 49.5 41.8239 49.5 46.2V66H16.5V46.2C16.5 41.8239 18.2384 37.6271 21.3327 34.5327C24.4271 31.4384 28.6239 29.7 33 29.7ZM10.8504 39.6198C10.3252 41.3912 10.015 43.2193 9.9264 45.0648L9.9 46.2V66H3.01346e-07V51.15C-0.000649464 48.304 1.04949 45.5579 2.94899 43.4386C4.8485 41.3192 7.4636 39.9758 10.2927 39.666L10.8537 39.6198H10.8504ZM55.1496 39.6198C58.0863 39.7988 60.8441 41.0915 62.8604 43.2341C64.8767 45.3767 65.9996 48.2078 66 51.15V66H56.1V46.2C56.1 43.9131 55.77 41.7054 55.1496 39.6198ZM11.55 19.8C13.738 19.8 15.8365 20.6692 17.3836 22.2164C18.9308 23.7635 19.8 25.862 19.8 28.05C19.8 30.238 18.9308 32.3365 17.3836 33.8836C15.8365 35.4308 13.738 36.3 11.55 36.3C9.36196 36.3 7.26354 35.4308 5.71637 33.8836C4.16919 32.3365 3.3 30.238 3.3 28.05C3.3 25.862 4.16919 23.7635 5.71637 22.2164C7.26354 20.6692 9.36196 19.8 11.55 19.8ZM54.45 19.8C56.638 19.8 58.7365 20.6692 60.2836 22.2164C61.8308 23.7635 62.7 25.862 62.7 28.05C62.7 30.238 61.8308 32.3365 60.2836 33.8836C58.7365 35.4308 56.638 36.3 54.45 36.3C52.262 36.3 50.1635 35.4308 48.6164 33.8836C47.0692 32.3365 46.2 30.238 46.2 28.05C46.2 25.862 47.0692 23.7635 48.6164 22.2164C50.1635 20.6692 52.262 19.8 54.45 19.8ZM33 0C36.5009 0 39.8583 1.39071 42.3338 3.86619C44.8093 6.34167 46.2 9.69914 46.2 13.2C46.2 16.7009 44.8093 20.0583 42.3338 22.5338C39.8583 25.0093 36.5009 26.4 33 26.4C29.4991 26.4 26.1417 25.0093 23.6662 22.5338C21.1907 20.0583 19.8 16.7009 19.8 13.2C19.8 9.69914 21.1907 6.34167 23.6662 3.86619C26.1417 1.39071 29.4991 0 33 0Z" fill="#FF2B2A"/>
</svg>
